{
  "asset": {
    "version": "2.0",
    "generator": "vessels-perception-viz/build-meshes.mjs"
  },
  "scene": 0,
  "scenes": [
    {
      "nodes": [
        0
      ]
    }
  ],
  "nodes": [
    {
      "mesh": 0,
      "name": "bridge-house"
    }
  ],
  "meshes": [
    {
      "name": "bridge-house",
      "primitives": [
        {
          "attributes": {
            "POSITION": 0,
            "NORMAL": 1
          },
          "indices": 2,
          "mode": 4
        }
      ]
    }
  ],
  "buffers": [
    {
      "uri": "data:application/octet-stream;base64,",
      "byteLength": 1440
    }
  ],
  "bufferViews": [
    {
      "buffer": 0,
      "byteOffset": 0,
      "byteLength": 576,
      "target": 34962
    },
    {
      "buffer": 0,
      "byteOffset": 576,
      "byteLength": 576,
      "target": 34962
    },
    {
      "buffer": 0,
      "byteOffset": 1152,
      "byteLength": 288,
      "target": 34963
    }
  ],
  "accessors": [
    {
      "bufferView": 0,
      "componentType": 5126,
      "count": 48,
      "type": "VEC3",
      "min": [
        -0.3499999940395355,
        -0.2750000059604645,
        -0.3499999940395355
      ],
      "max": [
        0.3499999940395355,
        0.625,
        0.3499999940395355
      ]
    },
    {
      "bufferView": 1,
      "componentType": 5126,
      "count": 48,
      "type": "VEC3"
    },
    {
      "bufferView": 2,
      "componentType": 5125,
      "count": 72,
      "type": "SCALAR"
    }
  ]
}
