{
  "asset": {
    "version": "2.0",
    "generator": "vessels-perception-viz/build-meshes.mjs"
  },
  "scene": 0,
  "scenes": [
    {
      "nodes": [
        0
      ]
    }
  ],
  "nodes": [
    {
      "mesh": 0,
      "name": "cargo-tank-c"
    }
  ],
  "meshes": [
    {
      "name": "cargo-tank-c",
      "primitives": [
        {
          "attributes": {
            "POSITION": 0,
            "NORMAL": 1
          },
          "indices": 2,
          "mode": 4
        }
      ]
    }
  ],
  "buffers": [
    {
      "uri": "data:application/octet-stream;base64,",
      "byteLength": 37464
    }
  ],
  "bufferViews": [
    {
      "buffer": 0,
      "byteOffset": 0,
      "byteLength": 9900,
      "target": 34962
    },
    {
      "buffer": 0,
      "byteOffset": 9900,
      "byteLength": 9900,
      "target": 34962
    },
    {
      "buffer": 0,
      "byteOffset": 19800,
      "byteLength": 17664,
      "target": 34963
    }
  ],
  "accessors": [
    {
      "bufferView": 0,
      "componentType": 5126,
      "count": 825,
      "type": "VEC3",
      "min": [
        -0.550000011920929,
        -0.550000011920929,
        -0.550000011920929
      ],
      "max": [
        0.550000011920929,
        0.550000011920929,
        0.550000011920929
      ]
    },
    {
      "bufferView": 1,
      "componentType": 5126,
      "count": 825,
      "type": "VEC3"
    },
    {
      "bufferView": 2,
      "componentType": 5125,
      "count": 4416,
      "type": "SCALAR"
    }
  ]
}
