{
  "asset": {
    "version": "2.0",
    "generator": "vessels-perception-viz/build-meshes.mjs"
  },
  "scene": 0,
  "scenes": [
    {
      "nodes": [
        0
      ]
    }
  ],
  "nodes": [
    {
      "mesh": 0,
      "name": "port-jetty"
    }
  ],
  "meshes": [
    {
      "name": "port-jetty",
      "primitives": [
        {
          "attributes": {
            "POSITION": 0,
            "NORMAL": 1
          },
          "indices": 2,
          "mode": 4
        }
      ]
    }
  ],
  "buffers": [
    {
      "uri": "data:application/octet-stream;base64,",
      "byteLength": 16848
    }
  ],
  "bufferViews": [
    {
      "buffer": 0,
      "byteOffset": 0,
      "byteLength": 6432,
      "target": 34962
    },
    {
      "buffer": 0,
      "byteOffset": 6432,
      "byteLength": 6432,
      "target": 34962
    },
    {
      "buffer": 0,
      "byteOffset": 12864,
      "byteLength": 3984,
      "target": 34963
    }
  ],
  "accessors": [
    {
      "bufferView": 0,
      "componentType": 5126,
      "count": 536,
      "type": "VEC3",
      "min": [
        -2,
        -0.7200000286102295,
        -0.4000000059604645
      ],
      "max": [
        2,
        0.125,
        0.4000000059604645
      ]
    },
    {
      "bufferView": 1,
      "componentType": 5126,
      "count": 536,
      "type": "VEC3"
    },
    {
      "bufferView": 2,
      "componentType": 5125,
      "count": 996,
      "type": "SCALAR"
    }
  ]
}
