{
  "asset": {
    "version": "2.0",
    "generator": "vessels-perception-viz/build-meshes.mjs"
  },
  "scene": 0,
  "scenes": [
    {
      "nodes": [
        0
      ]
    }
  ],
  "nodes": [
    {
      "mesh": 0,
      "name": "port-loading-arm"
    }
  ],
  "meshes": [
    {
      "name": "port-loading-arm",
      "primitives": [
        {
          "attributes": {
            "POSITION": 0,
            "NORMAL": 1
          },
          "indices": 2,
          "mode": 4
        }
      ]
    }
  ],
  "buffers": [
    {
      "uri": "data:application/octet-stream;base64,",
      "byteLength": 12552
    }
  ],
  "bufferViews": [
    {
      "buffer": 0,
      "byteOffset": 0,
      "byteLength": 4092,
      "target": 34962
    },
    {
      "buffer": 0,
      "byteOffset": 4092,
      "byteLength": 4092,
      "target": 34962
    },
    {
      "buffer": 0,
      "byteOffset": 8184,
      "byteLength": 4368,
      "target": 34963
    }
  ],
  "accessors": [
    {
      "bufferView": 0,
      "componentType": 5126,
      "count": 341,
      "type": "VEC3",
      "min": [
        -0.11999999731779099,
        -0.699999988079071,
        -0.11699134856462479
      ],
      "max": [
        0.6469806432723999,
        0.5009881258010864,
        0.11699134856462479
      ]
    },
    {
      "bufferView": 1,
      "componentType": 5126,
      "count": 341,
      "type": "VEC3"
    },
    {
      "bufferView": 2,
      "componentType": 5125,
      "count": 1092,
      "type": "SCALAR"
    }
  ]
}
